<?xml version="1.0" encoding="UTF-8" standalone="no"?>
<!-- Created with Inkscape (http://www.inkscape.org/) -->

<svg
   xmlns:dc="http://purl.org/dc/elements/1.1/"
   xmlns:cc="http://creativecommons.org/ns#"
   xmlns:rdf="http://www.w3.org/1999/02/22-rdf-syntax-ns#"
   xmlns:svg="http://www.w3.org/2000/svg"
   xmlns="http://www.w3.org/2000/svg"
   xmlns:sodipodi="http://sodipodi.sourceforge.net/DTD/sodipodi-0.dtd"
   xmlns:inkscape="http://www.inkscape.org/namespaces/inkscape"
   version="1.1"
   id="svg815"
   width="466"
   height="472"
   viewBox="0 0 466 472"
   sodipodi:docname="Quetzalcoatl feathered serpent.svg"
   inkscape:version="0.92.4 (5da689c313, 2019-01-14)">
  <metadata
     id="metadata821">
    <rdf:RDF>
      <cc:Work
         rdf:about="">
        <dc:format>image/svg+xml</dc:format>
        <dc:type
           rdf:resource="http://purl.org/dc/dcmitype/StillImage" />
        <dc:title></dc:title>
      </cc:Work>
    </rdf:RDF>
  </metadata>
  <defs
     id="defs819" />
  <sodipodi:namedview
     pagecolor="#ffffff"
     bordercolor="#666666"
     borderopacity="1"
     objecttolerance="10"
     gridtolerance="10"
     guidetolerance="10"
     inkscape:pageopacity="0"
     inkscape:pageshadow="2"
     inkscape:window-width="1920"
     inkscape:window-height="1001"
     id="namedview817"
     showgrid="false"
     showguides="false"
     inkscape:zoom="1"
     inkscape:cx="94.964838"
     inkscape:cy="241.88554"
     inkscape:window-x="-9"
     inkscape:window-y="-9"
     inkscape:window-maximized="1"
     inkscape:current-layer="svg815" />
  <g
     id="g1128">
    <path
       inkscape:connector-curvature="0"
       id="path1051"
       d="m 256,90.750001 c 0,0 8.25,-8.25 40.75,13.249999 32.5,21.5 88.5,53.25 108.75,75.75 20.25,22.5 20.5,21.75 20.5,21.75 0,0 -2.5,5.75 -15.75,-3.75 C 397,188.25 384,176.5 369.25,167.25 354.5,158 344.5,148.5 334.75,144.75 325,141 295.75,123 295.75,123 l -33,-6.5 z"
       style="fill:#6d8720;stroke:#000000;stroke-width:1px;stroke-linecap:butt;stroke-linejoin:miter;stroke-opacity:1;fill-opacity:1" />
    <path
       inkscape:connector-curvature="0"
       id="path1053"
       d="m 273.75,114 c 0,0 29.5,-5 56.25,28.5 26.75,33.5 66,71.75 69.75,75 3.75,3.25 3.25,14.25 -9.5,4.5 -12.75,-9.75 -62.75,-60 -62.75,-60 l -49.75,-30.75 z"
       style="fill:#6d8720;stroke:#000000;stroke-width:1px;stroke-linecap:butt;stroke-linejoin:miter;stroke-opacity:1;fill-opacity:1" />
    <g
       id="g1001">
      <path
         style="fill:#ffffff;stroke:#000000;stroke-width:1px;stroke-linecap:butt;stroke-linejoin:miter;stroke-opacity:1;fill-opacity:1"
         d="m 342.59323,439.47309 c 0,0 56.21499,40.30508 62.2254,26.87006 6.01041,-13.43503 -50.55813,-55.15433 -50.55813,-55.15433 z"
         id="path993"
         inkscape:connector-curvature="0" />
      <path
         style="opacity:0.98000004;vector-effect:none;fill:#e1000e;fill-opacity:1;stroke:none;stroke-width:1;stroke-miterlimit:4;stroke-dasharray:none;stroke-opacity:1;paint-order:markers stroke fill"
         d="m 397.94584,468.66328 c -5.98787,-0.77611 -15.69389,-4.99462 -28.28009,-12.2913 -3.44245,-1.99571 -10.20562,-6.14028 -10.19801,-6.24948 0.004,-0.0595 17.20934,-9.79719 23.68448,-13.40487 l 0.85629,-0.47709 4.84306,4.82303 c 5.58043,5.55734 7.94613,8.16275 10.67019,11.75133 4.59843,6.05784 6.37667,10.72645 5.1261,13.45806 -0.81481,1.77977 -2.31889,2.50204 -5.11905,2.45818 -0.66279,-0.0104 -1.37513,-0.0409 -1.58297,-0.0678 z"
         id="path997"
         inkscape:connector-curvature="0" />
    </g>
    <path
       inkscape:connector-curvature="0"
       id="path1011"
       d="m 367.1652,382.90455 c 0,0 15.8348,-7.90455 10.4598,-18.65455 -5.375,-10.75 -8.75,-45.875 -8.375,-47.875 0.375,-2 0.375,-46.375 3.125,-55.625 2.75,-9.25 6.125,-17.125 6.125,-17.125 0,0 13,-24.75 8.625,1.375 -4.375,26.125 -8.625,49.625 -6.875,55 1.75,5.375 1.125,35.125 3.875,44.625 2.75,9.5 4.125,21.875 4.5,26.25 0.375,4.375 2.25,16.125 2.25,16.125 l -0.875,10.125 -17.875,9 -10.875,-6.625 z"
       style="fill:#6d8720;stroke:#000000;stroke-width:1px;stroke-linecap:butt;stroke-linejoin:miter;stroke-opacity:1;fill-opacity:1" />
    <path
       inkscape:connector-curvature="0"
       id="path1009"
       d="m 361.25,399.5 c 0,0 22.25,8.625 26.875,-11.625 4.625,-20.25 5.625,-26.375 4.875,-38 -0.75,-11.625 5.5,-79.625 10.25,-85.875 4.75,-6.25 12.5,-24.25 11.25,-0.875 -1.25,23.375 -13.375,75.5 -12.375,85.75 1,10.25 2.375,41.25 2.375,41.25 L 391.625,412 362.5,416.75 354.125,404 Z"
       style="fill:#6d8720;stroke:#000000;stroke-width:1px;stroke-linecap:butt;stroke-linejoin:miter;stroke-opacity:1;fill-opacity:1" />
    <path
       inkscape:connector-curvature="0"
       id="path1005"
       d="m 358.50314,415.96179 c 0,0 35.70889,34.29468 49.49747,-2.47488 C 421.78919,376.71736 430,337 440.375,322.125 c 10.375,-14.875 19.25,-28.875 19.25,-28.875 0,0 3.875,-9.75 -7.75,-0.125 -11.625,9.625 -27.375,26.25 -30.125,41.25 -2.75,15 -2.5,-8.25 0.25,-18.875 2.75,-10.625 20.75,-62.125 5.5,-42.875 -15.25,19.25 -25,88.375 -25,95.75 0,7.375 0.875,21.875 -7,31.375 -7.875,9.5 -30.75,17.375 -36.875,11.625 -6.125,-5.75 -0.12186,4.58679 -0.12186,4.58679 z"
       style="fill:#6d8720;stroke:#000000;stroke-width:1px;stroke-linecap:butt;stroke-linejoin:miter;stroke-opacity:1;fill-opacity:1" />
    <path
       inkscape:connector-curvature="0"
       id="path1003"
       d="m 355.23277,419.14377 c 0,0 15.99829,17.14734 31.46625,14.31891 15.46796,-2.82843 62.2254,-37.9186 67.97064,-32.79208 5.74524,5.12653 2.47487,-3.62392 -0.44194,-4.86136 -2.91682,-1.23743 -16.44024,-2.74003 -31.81981,7.95496 -15.37957,10.69499 -45.78516,28.72621 -59.57374,15.9099 -13.78859,-12.81631 -7.6014,-0.53033 -7.6014,-0.53033 z"
       style="fill:#6d8720;stroke:#000000;stroke-width:1px;stroke-linecap:butt;stroke-linejoin:miter;stroke-opacity:1;fill-opacity:1" />
    <path
       sodipodi:nodetypes="ccccc"
       inkscape:connector-curvature="0"
       id="path989"
       d="m 338.25,378 34.25,0.375 c 0,0 -4.98125,41.12232 -29.90677,61.09809 L 320.375,419.75 338.25,378"
       style="fill:#fada47;stroke:#000000;stroke-width:1px;stroke-linecap:butt;stroke-linejoin:miter;stroke-opacity:1;fill-opacity:1" />
    <g
       id="g987">
      <path
         style="fill:#ffffff;stroke:#000000;stroke-width:1px;stroke-linecap:butt;stroke-linejoin:miter;stroke-opacity:1"
         d="m 326.86011,375.83348 c 0,0 14.84924,-4.77297 15.37957,1.94454 0.53033,6.71752 -14.67246,49.3207 -21.92031,51.79557 -7.24784,2.47488 -11.31371,-12.9047 -11.31371,-12.9047 z"
         id="path975"
         inkscape:connector-curvature="0" />
      <path
         style="fill:none;stroke:#000000;stroke-width:1px;stroke-linecap:butt;stroke-linejoin:miter;stroke-opacity:1"
         d="m 337.90865,394.12987 -12.02081,-2.20971"
         id="path977"
         inkscape:connector-curvature="0" />
      <path
         style="fill:none;stroke:#000000;stroke-width:1px;stroke-linecap:butt;stroke-linejoin:miter;stroke-opacity:1"
         d="m 329.75,379.0625 c 0,0 8.3125,0.75 7.8125,4.125 -0.5,3.375 -8.8125,1.5 -8.8125,1.5"
         id="path979"
         inkscape:connector-curvature="0" />
      <path
         style="fill:none;stroke:#000000;stroke-width:1px;stroke-linecap:butt;stroke-linejoin:miter;stroke-opacity:1"
         d="m 326.25,395.5625 c 0,0 6.6875,2.3125 6.6875,4.25 0,1.9375 -3.25,6.4375 -3.25,6.4375 0,0 -2.875,0.8125 -5.6875,-3.8125"
         id="path981"
         inkscape:connector-curvature="0" />
    </g>
    <path
       sodipodi:nodetypes="ccccc"
       inkscape:connector-curvature="0"
       id="path973"
       d="m 311.48054,424.27029 -38.7141,-27.22361 17.14734,-35.17856 40.30509,11.31371 c 0,0 -2.2981,37.1231 -18.73833,51.08846"
       style="fill:#e1000e;stroke:#000000;stroke-width:1px;stroke-linecap:butt;stroke-linejoin:miter;stroke-opacity:1;fill-opacity:1" />
    <g
       transform="translate(20.682873,3.0052039)"
       id="g969">
      <path
         inkscape:connector-curvature="0"
         id="path965"
         d="m 293.44931,373.53538 -3.71231,9.19239 -2.12132,-1.23744 -3.88908,11.84404 -8.66206,-3.0052 c 0,0 -12.37437,10.07627 -17.32412,7.77817 -4.94975,-2.2981 -19.26866,1.41422 -18.03122,-17.85444 1.23743,-19.26866 8.13173,-24.74874 8.13173,-24.74874 0,0 14.14213,-8.83884 22.45064,1.41421 8.3085,10.25305 9.19238,12.02082 9.19238,12.02082 z"
         style="fill:#a0bb74;fill-opacity:1;stroke:#000000;stroke-width:1px;stroke-linecap:butt;stroke-linejoin:miter;stroke-opacity:1" />
      <path
         inkscape:connector-curvature="0"
         id="path967"
         d="m 287.61568,381.49033 -8.22011,-3.0052"
         style="fill:none;stroke:#000000;stroke-width:1px;stroke-linecap:butt;stroke-linejoin:miter;stroke-opacity:1" />
    </g>
    <g
       id="g891">
      <path
         style="fill:#ffffff;stroke:#000000;stroke-width:1px;stroke-linecap:butt;stroke-linejoin:miter;stroke-opacity:1"
         d="m 103.6151,105.95173 c 0,0 -3.57797,5.11139 -2.40965,11.09901 1.16831,5.98763 5.76856,17.88985 5.76856,17.88985 l 20.59158,-16.13737 c 0,0 -9.78465,-14.67698 -10.95297,-14.75 -1.16831,-0.073 -12.99752,1.89851 -12.99752,1.89851 z"
         id="path882"
         inkscape:connector-curvature="0" />
      <path
         style="fill:none;stroke:#000000;stroke-width:1px;stroke-linecap:butt;stroke-linejoin:miter;stroke-opacity:1"
         d="m 101.7896,119.0953 4.60025,-3.57797"
         id="path884"
         inkscape:connector-curvature="0" />
      <path
         style="fill:none;stroke:#000000;stroke-width:1px;stroke-linecap:butt;stroke-linejoin:miter;stroke-opacity:1"
         d="m 104.78342,128.36881 3.72401,-5.40346"
         id="path886"
         inkscape:connector-curvature="0" />
    </g>
    <path
       inkscape:connector-curvature="0"
       id="path868"
       d="m 170.80129,232.01076 c 0,0 -4.33715,-17.55515 -24.78374,-10.73962 -20.44659,6.81553 -47.502173,17.55515 -51.632797,14.45718 -4.130624,-3.09797 -7.228591,10.12003 13.217997,10.12003 20.44659,0 63.19854,-13.83759 63.19854,-13.83759 z"
       style="fill:#6d8720;stroke:#000000;stroke-width:1px;stroke-linecap:butt;stroke-linejoin:miter;stroke-opacity:1;fill-opacity:1" />
    <path
       inkscape:connector-curvature="0"
       id="path874"
       d="m 99.45297,256.59158 c 0,0 -29.20792,5.69555 -38.262376,23.2203 -9.054455,17.52475 -34.173267,35.19555 -48.485148,36.5099 -14.3118816,1.31436 -1.752476,10.36881 1.606435,10.95297 3.358911,0.58416 16.356436,5.84159 41.767327,-11.24505 25.410891,-17.08663 43.373762,-59.43812 43.373762,-59.43812 z"
       style="fill:#6d8720;stroke:#000000;stroke-width:1px;stroke-linecap:butt;stroke-linejoin:miter;stroke-opacity:1;fill-opacity:1" />
    <path
       inkscape:connector-curvature="0"
       id="path876"
       d="m 61.752825,352.8315 c 0,0 -25.196805,10.53309 -14.04412,28.50131 11.152684,17.96821 22.098837,27.88171 15.902901,41.51277 C 57.41567,436.47664 83.4386,430.07417 79.92757,392.89855 76.41654,355.72294 61.752825,352.8315 61.752825,352.8315 Z"
       style="fill:#6d8720;stroke:#000000;stroke-width:1px;stroke-linecap:butt;stroke-linejoin:miter;stroke-opacity:1;fill-opacity:1" />
    <g
       id="g963">
      <path
         style="fill:#a0bb74;stroke:#000000;stroke-width:1px;stroke-linecap:butt;stroke-linejoin:miter;stroke-opacity:1;fill-opacity:1"
         d="m 293.44931,373.53538 -3.71231,9.19239 -2.12132,-1.23744 -3.88908,11.84404 -8.66206,-3.0052 c 0,0 -12.37437,10.07627 -17.32412,7.77817 -4.94975,-2.2981 -19.26866,1.41422 -18.03122,-17.85444 1.23743,-19.26866 8.13173,-24.74874 8.13173,-24.74874 0,0 14.14213,-8.83884 22.45064,1.41421 8.3085,10.25305 9.19238,12.02082 9.19238,12.02082 z"
         id="path957"
         inkscape:connector-curvature="0" />
      <path
         style="fill:none;stroke:#000000;stroke-width:1px;stroke-linecap:butt;stroke-linejoin:miter;stroke-opacity:1"
         d="m 287.61568,381.49033 -8.22011,-3.0052"
         id="path959"
         inkscape:connector-curvature="0" />
    </g>
    <path
       inkscape:connector-curvature="0"
       id="path1013"
       d="m 115.43518,430.63425 c 0,0 17.50089,11.84404 49.14392,3.35876 31.64303,-8.48528 49.85103,-8.83883 56.56855,-4.06586 6.71751,4.77297 20.50609,-0.35356 9.72271,-7.77818 -10.78337,-7.42462 -29.34493,-8.48528 -36.76955,-8.13173 -7.42462,0.35356 -15.37957,-0.35355 -15.37957,-0.35355 z"
       style="fill:#ffffff;stroke:#000000;stroke-width:1px;stroke-linecap:butt;stroke-linejoin:miter;stroke-opacity:1;fill-opacity:1" />
    <path
       sodipodi:nodetypes="cccccccccccsssssc"
       inkscape:connector-curvature="0"
       id="path864"
       d="m 263.54989,385.98495 2.58164,0.20653 -1.54899,-6.50573 -42.44216,-0.20653 -87.76785,12.27202 -50.237628,-41.47525 24.534658,-68.34654 97.84653,-48.19307 -2.33663,-58.12376 -13.72773,11.75619 -12.41336,9.41955 c 0,0 22.70916,17.59778 2.40965,26.43317 -20.2995,8.8354 -69.52468,20.05037 -82.74268,32.44224 -13.217994,12.39187 -39.240924,39.65399 -40.27358,63.40507 -1.032655,23.75109 -5.163279,55.14383 19.620463,82.19942 24.783747,27.05558 40.067047,38.00173 70.220607,30.15355 30.15355,-7.84819 74.14469,-50.80667 116.27706,-45.43686"
       style="fill:#fada47;fill-opacity:1;stroke:#000000;stroke-width:1px;stroke-linecap:butt;stroke-linejoin:miter;stroke-opacity:1" />
    <path
       inkscape:connector-curvature="0"
       id="path860"
       d="m 106.97401,98.941831 c 0,0 -13.508663,5.695549 -4.52723,8.397279 8.98144,2.70173 14.82302,4.30817 17.15966,16.21039 2.33663,11.90223 -5.18441,20.66461 7.95915,31.10644 13.14357,10.44183 33.66213,15.33416 33.66213,15.33416 0,0 -27.16336,3.35891 -30.66831,6.71782 -3.50495,3.35891 -40.160895,21.32178 -42.789608,19.86139 -2.628713,-1.4604 2.190594,6.57178 2.190594,6.57178 l 64.549504,-21.0297 18.98515,-1.02228 0.43812,-15.62624 -30.08416,-16.50247 -26.14109,-49.799509 z"
       style="fill:#fada47;stroke:#000000;stroke-width:1px;stroke-linecap:butt;stroke-linejoin:miter;stroke-opacity:1;fill-opacity:1" />
    <path
       sodipodi:nodetypes="sccccccssscscs"
       inkscape:connector-curvature="0"
       id="path854"
       d="m 91.201733,211.39233 c 8.251237,5.03836 86.382427,-21.54085 86.382427,-21.54085 l 13.14356,-26.43316 -29.79208,-25.11882 -20.59158,-30.66831 -19.13119,-17.962874 -6.175,4.999202 c 0,0 -8.67431,0.826125 -9.08737,3.717562 -0.41306,2.89144 20.85965,15.48984 24.37068,34.49071 3.51103,19.00087 3.3045,19.2074 16.10943,22.71843 12.80494,3.51103 27.67518,9.50043 26.43599,16.31596 -1.23918,6.81553 -11.35921,10.12003 -15.07677,6.19594 -3.71756,-3.92409 -64.644264,28.08824 -69.18795,22.71843 0,0 -5.651385,5.52941 2.599853,10.56778 z"
       style="fill:#e1000e;stroke:#000000;stroke-width:1px;stroke-linecap:butt;stroke-linejoin:miter;stroke-opacity:1;fill-opacity:1" />
    <path
       sodipodi:nodetypes="cssssscccccccccccccccc"
       inkscape:connector-curvature="0"
       id="path856"
       d="m 265.79208,382.33168 c 0,0 -49.14233,0.14604 -63.67327,13.50867 -14.53094,13.36262 -58.06331,32.4783 -70.35191,29.07054 -12.28861,-3.40777 -48.670365,-15.12376 -58.601058,-43.89356 -9.930693,-28.76981 -7.44802,-64.40347 -0.29208,-75.50248 7.155941,-11.09901 26.871288,-41.18317 46.732678,-46.00247 19.86138,-4.81931 102.5198,-25.55693 73.45792,-66.88614 l -4.16213,-7.95916 19.27723,-9.05446 4.60024,38.48144 -4.60024,27.3094 -20.95669,13.21659 -40.45297,16.2104 -23.14728,6.35272 -10.58787,16.79455 -19.277224,7.0099 -2.044555,53.59654 25.118809,40.01485 89.9604,-24.24257 52.86634,-1.4604 4.90803,7.27349 z"
       style="fill:#e1000e;stroke:#000000;stroke-width:1px;stroke-linecap:butt;stroke-linejoin:miter;stroke-opacity:1;fill-opacity:1" />
    <path
       sodipodi:nodetypes="cscsc"
       inkscape:connector-curvature="0"
       id="path870"
       d="m 199.92822,254.10891 c 0,0 9.93069,16.79456 -3.06683,21.0297 -12.99753,4.23515 -55.49505,2.9208 -54.91089,40.30693 0,0 -30.2302,-3.35891 -12.99753,-33.44306 17.23267,-30.08416 70.97525,-27.89357 70.97525,-27.89357"
       style="fill:#6d8720;stroke:#000000;stroke-width:1px;stroke-linecap:butt;stroke-linejoin:miter;stroke-opacity:1;fill-opacity:1" />
    <path
       sodipodi:nodetypes="cscsc"
       inkscape:connector-curvature="0"
       id="path878"
       d="m 90.873723,340.43963 c 0,0 7.848185,-11.97881 28.501307,16.10944 20.65312,28.08824 63.81813,-11.97881 58.65485,-36.96909 0,0 34.69724,43.57808 -31.39274,67.12264 -66.089976,23.54455 -55.763417,-46.26299 -55.763417,-46.26299"
       style="fill:#6d8720;stroke:#000000;stroke-width:1px;stroke-linecap:butt;stroke-linejoin:miter;stroke-opacity:1;fill-opacity:1" />
    <path
       inkscape:connector-curvature="0"
       id="path1033"
       d="m 181.19611,64.529719 c 0,0 -3.53553,-21.566757 14.49569,-29.521709 C 213.72302,27.053059 330.57242,14.325137 344.18422,4.4256423 357.79603,-5.4738526 323.67813,26.876283 253.49778,35.538341 183.31743,44.200399 188.44396,70.89368 188.44396,70.89368 Z"
       style="fill:#6d8720;stroke:#000000;stroke-width:1px;stroke-linecap:butt;stroke-linejoin:miter;stroke-opacity:1;fill-opacity:1" />
    <path
       inkscape:connector-curvature="0"
       id="path1043"
       d="m 185,63.000001 c 0,0 16,-25.25 66,-25.75 50,-0.5 116,-3.75 116,-3.75 0,0 17,8.75 -8.75,11.25 -25.75,2.5 -93.5,-2.5 -103,0 -9.5,2.5 -49.5,-1 -50.5,23 -1,24 -19.75,-4.75 -19.75,-4.75 z"
       style="fill:#6d8720;stroke:#000000;stroke-width:1px;stroke-linecap:butt;stroke-linejoin:miter;stroke-opacity:1;fill-opacity:1" />
    <path
       inkscape:connector-curvature="0"
       id="path1045"
       d="m 201,67.500001 c 0,0 7.75,-25.25 42.25,-19 34.5,6.25 156.5,29 156.5,29 0,0 2.75,5.75 -18,4.25 -20.75,-1.5 -20.75,-1.25 -20.75,-1.25 0,0 -40.25,-7.75 -48,-8.25 -7.75,-0.5 -83.75,-25.75 -98.25,-3 -14.5,22.75 -13.75,-1.75 -13.75,-1.75 z"
       style="fill:#6d8720;stroke:#000000;stroke-width:1px;stroke-linecap:butt;stroke-linejoin:miter;stroke-opacity:1;fill-opacity:1" />
    <path
       inkscape:connector-curvature="0"
       id="path1049"
       d="m 229.5,77.750001 c 0,0 -0.25,-13.5 17.5,-9.25 17.75,4.25 52.75,15.5 57,18.5 4.25,3 113.25,68.749999 113.25,68.749999 0,0 -6,9.5 -17,3 C 389.25,152.25 324,114 324,114 c 0,0 -27,-17.249999 -43,-20.999999 -16,-3.75 -25.25,-7 -31.25,0 -6,6.999999 -20.25,-15.25 -20.25,-15.25 z"
       style="fill:#6d8720;stroke:#000000;stroke-width:1px;stroke-linecap:butt;stroke-linejoin:miter;stroke-opacity:1;fill-opacity:1" />
    <path
       inkscape:connector-curvature="0"
       id="path1047"
       d="m 212.25,68.750001 c 0,0 13.5,-20.75 64.25,-4 C 327.25,81.500001 415,117 417.5,123 c 2.5,6 1.25,8.5 -15.75,1.5 -17,-7 -81.75,-30.499999 -94,-33.749999 -12.25,-3.25 -59.5,-28 -75,-14.5 -15.5,13.5 -20.5,-7.5 -20.5,-7.5 z"
       style="fill:#6d8720;stroke:#000000;stroke-width:1px;stroke-linecap:butt;stroke-linejoin:miter;stroke-opacity:1;fill-opacity:1" />
    <path
       inkscape:connector-curvature="0"
       id="path1055"
       d="m 280.75,129 c 0,0 34.75,6.75 48.25,39 13.5,32.25 18.25,100.25 16.5,103.75 -1.75,3.5 -10.25,11 -14.25,-6.25 -4,-17.25 -2.75,-67.5 -15.5,-88.75 C 303,155.5 297,147.25 291.25,144.75 285.5,142.25 279,141 279,141 Z"
       style="fill:#6d8720;stroke:#000000;stroke-width:1px;stroke-linecap:butt;stroke-linejoin:miter;stroke-opacity:1;fill-opacity:1" />
    <path
       inkscape:connector-curvature="0"
       id="path1063"
       d="m 255,224.5 c 0,0 -58.75,83.5 -47.25,107.25 11.5,23.75 9,4.25 11,-3 2,-7.25 22,-61.75 39.25,-76 17.25,-14.25 26,-31.25 27,-36 1,-4.75 -13,-23.25 -13,-23.25 z"
       style="fill:#6d8720;stroke:#000000;stroke-width:1px;stroke-linecap:butt;stroke-linejoin:miter;stroke-opacity:1;fill-opacity:1" />
    <path
       inkscape:connector-curvature="0"
       id="path1061"
       d="m 271.75,197.5 c 0,0 15.5,15.25 6.25,28.75 -9.25,13.5 -40.5,73 -38,81.75 2.5,8.75 6.5,17 11,15.75 4.5,-1.25 1.5,-11.25 2.75,-13.5 1.25,-2.25 44.5,-95.5 44.5,-95.5 l -8.5,-36.5 -14.5,0.75 z"
       style="fill:#6d8720;stroke:#000000;stroke-width:1px;stroke-linecap:butt;stroke-linejoin:miter;stroke-opacity:1;fill-opacity:1" />
    <path
       inkscape:connector-curvature="0"
       id="path1059"
       d="m 279.5,181.5 c 0,0 20.75,12 10.5,62.25 -10.25,50.25 -17,50.5 -14.25,66.25 2.75,15.75 13.75,6 13,-2.75 C 288,298.5 298.5,246 302.5,241.5 c 4,-4.5 16,-52.25 -20,-84.5 -36,-32.25 -3,24.5 -3,24.5 z"
       style="fill:#6d8720;stroke:#000000;stroke-width:1px;stroke-linecap:butt;stroke-linejoin:miter;stroke-opacity:1;fill-opacity:1" />
    <path
       inkscape:connector-curvature="0"
       id="path1057"
       d="m 279,141 c 0,0 31.5,-3.75 39.5,51 8,54.75 -7.25,116.25 -4.75,123.5 2.5,7.25 -12,1.75 -13.25,-12.5 -1.25,-14.25 5.5,-80.25 5.5,-80.25 0,0 1.5,-40.25 -15,-57.25 -16.5,-17 -12,-24.5 -12,-24.5 z"
       style="fill:#6d8720;stroke:#000000;stroke-width:1px;stroke-linecap:butt;stroke-linejoin:miter;stroke-opacity:1;fill-opacity:1" />
    <path
       sodipodi:nodetypes="cscccccccc"
       inkscape:connector-curvature="0"
       id="path1029"
       d="m 167.75,61.375001 c 0,0 111.75,-1.375 117.25,74.624999 5.5,76 -40.75,111 -60.5,117.25 l -6.25,1.625 -3.625,-16 -12.75,-65.625 -29.625,-29 -30.75,-29.5 2.125,-19.249999 c 0,0 25,-10.625 24.125,-34.125"
       style="fill:#fada47;stroke:#000000;stroke-width:1px;stroke-linecap:butt;stroke-linejoin:miter;stroke-opacity:1;fill-opacity:1" />
    <path
       inkscape:connector-curvature="0"
       id="path1025"
       d="m 151.49763,110.58005 c 0,0 7.15945,-7.6014 9.104,-4.33103 1.94454,3.27037 4.24264,14.05375 4.24264,14.05375 l -1.59099,-15.2028 c 0,0 7.6014,-6.010408 9.54594,-0.35355 1.94454,5.65685 2.74004,14.67246 2.74004,14.67246 l -1.06066,-14.14213 c 0,0 5.7089,-7.651749 7.6464,-1.27675 1.9375,6.375 2.0625,11.9375 2.0625,11.9375 l 1.75,-11.875 c 0,0 6.6875,-8.999999 9.125,0.25 2.4375,9.25 0.5625,11.9375 0.5625,11.9375 l 1.625,-13.5 c 0,0 11.25,-7.874999 11.5,2.1875 C 209,115 209,115 209,115 l 1.875,-10.875 c 0,0 12.375,-3.3125 10.25,6.1875 -2.125,9.5 -3.0625,9 -3.0625,9 l 4.8125,-7.6875 c 0,0 14.3125,-2.5 8.625,6.875 -5.6875,9.375 -5.8125,9.5625 -5.8125,9.5625 L 233.8125,119 c 0,0 11.25,1.5 6.5,8.375 -4.75,6.875 -4.6875,5.125 -4.6875,5.125 l 9.875,-6.75 c 0,0 9.875,6.5625 5.875,11.4375 -4,4.875 -8,4.9375 -8,4.9375 l 8.3125,-2.5625 c 0,0 9.3125,7.125 2.8125,10.4375 -6.5,3.3125 -6.6875,3.875 -6.6875,3.875 l 7.25,-0.125 c 0,0 8.9375,6.0625 0.1875,8.8125 -8.75,2.75 -8.75,2.6875 -8.75,2.6875 l 10.3125,0.375 c 0,0 1.5,10.9375 -4.25,10.3125 C 246.8125,175.3125 244.75,175 244.75,175 l 8.25,4.1875 c 0,0 0.8125,8.875 -3.1875,8.8125 -4,-0.0625 -7.6875,-0.75 -7.6875,-0.75 l 5.1875,4.4375 c 0,0 -0.6875,9.625 -6.125,7.4375 -5.4375,-2.1875 -8.5,-4.5 -8.5,-4.5 0,0 8.5625,7.25 6.1875,9.6875 -2.375,2.4375 -10.125,12.25 -12.875,6.125 -2.75,-6.125 -73.79527,-87.04114 -73.79527,-87.04114 z"
       style="fill:#a0bb74;stroke:#000000;stroke-width:1px;stroke-linecap:butt;stroke-linejoin:miter;stroke-opacity:1;fill-opacity:1" />
    <path
       sodipodi:nodetypes="ccsccsccsccsccccsccsccsccsccsccc"
       inkscape:connector-curvature="0"
       id="path1019"
       d="m 172,135 1,-4.375 c 0,0 5.5,-3.75 7.125,-0.125 1.625,3.625 1.625,4 1.625,4 l 1.375,-5.5 c 0,0 7.375,-4.875 9.125,0.5 1.75,5.375 1,13.25 1,13.25 L 193.875,130 c 0,0 9.625,-7.375 9.25,0.5 -0.375,7.875 -0.5,8.375 -0.5,8.375 l 1.625,-7.5 c 0,0 9.5,-6.75 9.375,0.625 -0.125,7.375 0,7.375 0,7.375 l 3.375,-3.5 c 0,0 14.25,-1.5 5.25,8.625 l 5.5,-0.5625 c 0,0 8.0625,4.375 3.875,7.5625 -4.1875,3.1875 -5.375,3.9375 -5.375,3.9375 l 6.75,-0.375 c 0,0 6.1875,6.75 0.8125,7.9375 -5.375,1.1875 -6.4375,1.875 -6.4375,1.875 l 5.3125,2.625 c 0,0 4.125,5.375 0.375,5.875 -3.75,0.5 -6.125,0.5 -6.125,0.5 l 5.25,2.75 c 0,0 1.875,5.5 -1.8125,5.6875 l -3.6875,0.1875 -0.625,8.4375 c 0,0 0.6875,3.375 -1.8125,0.875 -2.5,-2.5 -8.375,-6.3125 -8.375,-6.3125 L 193.5,149.4375 172,135"
       style="fill:#e1000e;stroke:#000000;stroke-width:1px;stroke-linecap:butt;stroke-linejoin:miter;stroke-opacity:1;fill-opacity:1" />
    <ellipse
       transform="rotate(63.269865)"
       ry="11.911742"
       rx="14.724242"
       cy="-110.95079"
       cx="236.27515"
       id="path1015"
       style="opacity:0.98000004;vector-effect:none;fill:#ffffff;fill-opacity:1;stroke:#000000;stroke-width:1;stroke-miterlimit:4;stroke-dasharray:none;stroke-opacity:1;paint-order:markers stroke fill" />
    <path
       sodipodi:nodetypes="cssssscsccscscsccscsscssscc"
       inkscape:connector-curvature="0"
       id="path836"
       d="m 264.56645,376.16953 c 0,0 -44.4042,-12.5984 -68.36182,12.5984 -23.95762,25.19681 -54.52423,31.18621 -79.30798,22.92496 -24.78374,-8.26124 -41.719297,-47.50217 -38.827861,-75.59041 2.891437,-28.08824 19.193587,-58.33515 47.817351,-67.38961 28.62376,-9.05445 70.39109,-17.52475 77.98515,-38.26238 7.59406,-20.73762 4.67326,-38.84653 -4.96535,-47.90099 0,0 -18.19115,19.9273 -32.4418,19.72077 -14.25065,-0.20653 -52.45892,13.01146 -52.45892,13.01146 0,0 -18.587811,4.13063 -22.511903,-2.27184 0,0 46.676053,-17.14209 57.002603,-24.99027 10.32656,-7.84819 10.12003,0.20653 10.12003,0.20653 0,0 21.27272,5.16328 23.33803,-17.14209 2.06531,-22.30537 -33.45806,-23.1315 -33.45806,-23.1315 0,0 -10.12002,1.85879 -13.63105,-20.44658 -3.51103,-22.30537 -7.64166,-27.881713 -19.827,-32.838462 0,0 -2.6849,-7.538388 2.9947,-11.669012 0,0 11.56575,-18.691073 23.64783,0.516328 12.08207,19.207396 9.6037,17.348616 10.32655,21.582506 0.72286,4.23389 8.36452,25.09354 22.5119,29.94703 14.14739,4.85348 28.39804,17.55515 39.96379,37.48541 11.56575,19.93026 27.35894,60.25735 -12.94799,85.08408 0,0 -65.4306,21.07295 -74.93103,29.95379 -9.50044,8.88084 -38.208271,38.62133 -26.02293,63.19854 12.18534,24.57721 28.91437,39.24093 70.63367,24.57721 41.7193,-14.66371 67.74223,-24.16415 90.87372,-12.39187 z"
       style="fill:#6d8720;stroke:#000000;stroke-width:1px;stroke-linecap:butt;stroke-linejoin:miter;stroke-opacity:1;fill-opacity:1" />
    <g
       transform="translate(-1.016466,0.30935922)"
       id="g927">
      <path
         style="fill:#ffffff;stroke:#000000;stroke-width:1px;stroke-linecap:butt;stroke-linejoin:miter;stroke-opacity:1"
         d="m 154.9375,191.0625 -1,6.625 -2.8125,1.25 -6.5625,-12.3125 -11.8125,1 0.0496,-29.44914 c 0,0 20.24004,10.94615 22.30535,10.01676 0,0 -5.35492,12.30738 6.20758,21.43238 11.5625,9.125 7.1875,14.6875 6.6875,15.75 -0.5,1.0625 -9.6875,-13.0625 -13.0625,-14.3125"
         id="path908"
         inkscape:connector-curvature="0"
         sodipodi:nodetypes="cccccccssc" />
      <path
         style="fill:none;stroke:#000000;stroke-width:1px;stroke-linecap:butt;stroke-linejoin:miter;stroke-opacity:1"
         d="m 144.5625,186.625 c 0,0 -5.4375,-12.1875 -5.0625,-13.8125"
         id="path910"
         inkscape:connector-curvature="0" />
      <path
         style="fill:none;stroke:#000000;stroke-width:1px;stroke-linecap:butt;stroke-linejoin:miter;stroke-opacity:1"
         d="m 155.08969,191.28347 c 0,0 -9.8125,-13.375 -9.5,-17.875"
         id="path912"
         inkscape:connector-curvature="0" />
    </g>
    <path
       sodipodi:nodetypes="ccccsccc"
       inkscape:connector-curvature="0"
       id="path937"
       d="m 177.73012,159.32492 c 0,0 -14.05375,-14.93763 -19.79899,-13.96536 -5.74524,0.97228 -19.35705,-6.89429 -22.0087,-10.42982 -2.65165,-3.53554 -1.59099,-13.08148 -1.59099,-13.08148 0,0 15.99829,-3.88908 22.98097,3.71231 6.98268,7.6014 22.0087,16.26346 22.0087,16.26346 0,0 11.84404,3.71231 0.35355,15.55635 z"
       style="fill:#a0bb74;fill-opacity:1;stroke:#000000;stroke-width:1px;stroke-linecap:butt;stroke-linejoin:miter;stroke-opacity:1" />
    <g
       transform="translate(-1.4805048,0.37565048)"
       id="g955">
      <path
         style="fill:#ffffff;stroke:#000000;stroke-width:1px;stroke-linecap:butt;stroke-linejoin:miter;stroke-opacity:1"
         d="m 138.76971,136.65461 c 0,0 -0.0884,8.22012 6.54073,9.81111 6.62913,1.59099 22.0087,5.48007 22.71581,6.98268 0.70711,1.5026 7.77817,-3.0936 -4.06587,-10.07628 -11.84403,-6.98268 -17.14733,-9.89949 -25.19067,-6.71751 z"
         id="path949"
         inkscape:connector-curvature="0" />
      <path
         style="fill:none;stroke:#000000;stroke-width:1px;stroke-linecap:butt;stroke-linejoin:miter;stroke-opacity:1"
         d="m 148.60291,135.81492 c 0.35355,0.0884 -1.67938,5.21491 3.44714,7.24784 5.12653,2.03294 7.07107,2.03294 8.66206,-1.59099"
         id="path951"
         inkscape:connector-curvature="0" />
    </g>
    <path
       inkscape:connector-curvature="0"
       id="path1007"
       d="m 420.46337,337.20777 c 0,0 -7.71337,49.79223 -15.46337,63.91723"
       style="fill:none;stroke:#000000;stroke-width:1px;stroke-linecap:butt;stroke-linejoin:miter;stroke-opacity:1" />
    <g
       transform="translate(-0.70710678,-0.70710678)"
       id="g1041">
      <path
         style="fill:#a0bb74;fill-opacity:1;stroke:#000000;stroke-width:1px;stroke-linecap:butt;stroke-linejoin:miter;stroke-opacity:1"
         d="m 119.67782,82.560941 c 0,0 3.97748,-9.015611 10.87177,-6.805903 6.89429,2.209709 12.55114,4.154253 10.42982,10.16466 -2.12132,6.010408 -9.28077,19.003492 -11.84403,18.208002 -2.56327,-0.7955 -8.21925,-8.136984 -14.09751,-9.460182 -5.87826,-1.323198 -1.45884,-8.482655 0.66248,-9.543315 2.12132,-1.06066 3.97747,-2.563262 3.97747,-2.563262 z"
         id="path1035"
         inkscape:connector-curvature="0" />
      <path
         style="fill:none;stroke:#000000;stroke-width:1px;stroke-linecap:butt;stroke-linejoin:miter;stroke-opacity:1"
         d="m 119.76621,83.002883 c 0,0 11.10879,6.622118 11.73379,-0.940382"
         id="path1037"
         inkscape:connector-curvature="0" />
    </g>
  </g>
</svg>
